<mxfile host="Electron" agent="Mozilla/5.0 (Windows NT 10.0; Win64; x64) AppleWebKit/537.36 (KHTML, like Gecko) draw.io/26.0.16 Chrome/132.0.6834.196 Electron/34.2.0 Safari/537.36" version="26.0.16">
  <diagram id="rNvz5T3x3AGBbH8v8KJn" name="Page-1">
    <mxGraphModel dx="695" dy="881" grid="1" gridSize="10" guides="1" tooltips="1" connect="1" arrows="1" fold="1" page="1" pageScale="1" pageWidth="827" pageHeight="1169" math="0" shadow="0">
      <root>
        <mxCell id="0" />
        <mxCell id="1" parent="0" />
        <mxCell id="C9NLg8bu5e6so61kfnxG-1" value="Remote system" style="shape=umlFrame;whiteSpace=wrap;html=1;width=110;height=30;" parent="1" vertex="1">
          <mxGeometry x="80" y="40" width="400" height="320" as="geometry" />
        </mxCell>
        <mxCell id="C9NLg8bu5e6so61kfnxG-4" value="«block»&lt;br&gt;&lt;b&gt;LiDAR Sensor&lt;/b&gt;" style="html=1;" parent="1" vertex="1">
          <mxGeometry x="120" y="90" width="120" height="50" as="geometry" />
        </mxCell>
        <mxCell id="C9NLg8bu5e6so61kfnxG-9" value="" style="endArrow=open;html=1;entryX=0;entryY=0.5;entryDx=0;entryDy=0;endFill=0;" parent="1" target="C9NLg8bu5e6so61kfnxG-4" edge="1">
          <mxGeometry width="50" height="50" relative="1" as="geometry">
            <mxPoint x="80" y="115" as="sourcePoint" />
            <mxPoint x="130" y="190" as="targetPoint" />
          </mxGeometry>
        </mxCell>
        <mxCell id="C9NLg8bu5e6so61kfnxG-10" value="Distance" style="text;html=1;strokeColor=none;fillColor=none;align=center;verticalAlign=middle;whiteSpace=wrap;rounded=0;" parent="1" vertex="1">
          <mxGeometry x="10" y="105" width="40" height="20" as="geometry" />
        </mxCell>
        <mxCell id="C9NLg8bu5e6so61kfnxG-15" value="" style="edgeStyle=orthogonalEdgeStyle;rounded=0;orthogonalLoop=1;jettySize=auto;html=1;endArrow=open;endFill=0;strokeColor=#000000;" parent="1" source="C9NLg8bu5e6so61kfnxG-12" target="C9NLg8bu5e6so61kfnxG-13" edge="1">
          <mxGeometry relative="1" as="geometry" />
        </mxCell>
        <mxCell id="C9NLg8bu5e6so61kfnxG-12" value="«block»&lt;br&gt;&lt;b&gt;Microcontroller&lt;/b&gt;" style="html=1;" parent="1" vertex="1">
          <mxGeometry x="320" y="160" width="120" height="50" as="geometry" />
        </mxCell>
        <mxCell id="C9NLg8bu5e6so61kfnxG-13" value="«interface»&lt;br&gt;&lt;b&gt;XBee Radio Module&lt;/b&gt;" style="html=1;" parent="1" vertex="1">
          <mxGeometry x="320" y="260" width="120" height="50" as="geometry" />
        </mxCell>
        <mxCell id="C9NLg8bu5e6so61kfnxG-14" value="" style="endArrow=classic;html=1;strokeColor=#000000;exitX=1;exitY=0.5;exitDx=0;exitDy=0;" parent="1" source="C9NLg8bu5e6so61kfnxG-13" edge="1">
          <mxGeometry width="50" height="50" relative="1" as="geometry">
            <mxPoint x="390" y="350" as="sourcePoint" />
            <mxPoint x="480" y="285" as="targetPoint" />
          </mxGeometry>
        </mxCell>
        <mxCell id="C9NLg8bu5e6so61kfnxG-16" value="Processing system" style="shape=umlFrame;whiteSpace=wrap;html=1;width=150;height=30;" parent="1" vertex="1">
          <mxGeometry x="690" y="40" width="470" height="320" as="geometry" />
        </mxCell>
        <mxCell id="C9NLg8bu5e6so61kfnxG-17" value="«interface»&lt;br&gt;&lt;b&gt;XBee Radio Module&lt;/b&gt;" style="html=1;" parent="1" vertex="1">
          <mxGeometry x="720" y="260" width="116" height="50" as="geometry" />
        </mxCell>
        <mxCell id="C9NLg8bu5e6so61kfnxG-19" value="" style="endArrow=classic;html=1;strokeColor=#000000;entryX=0;entryY=0.5;entryDx=0;entryDy=0;" parent="1" target="C9NLg8bu5e6so61kfnxG-17" edge="1">
          <mxGeometry width="50" height="50" relative="1" as="geometry">
            <mxPoint x="689" y="285" as="sourcePoint" />
            <mxPoint x="670" y="270" as="targetPoint" />
          </mxGeometry>
        </mxCell>
        <mxCell id="C9NLg8bu5e6so61kfnxG-23" value="" style="verticalLabelPosition=bottom;verticalAlign=top;html=1;shape=mxgraph.basic.arc;startAngle=0.5463867895388711;endAngle=0.9552011782612227;rotation=-180;" parent="1" vertex="1">
          <mxGeometry x="490" y="235" width="100" height="100" as="geometry" />
        </mxCell>
        <mxCell id="C9NLg8bu5e6so61kfnxG-26" value="" style="verticalLabelPosition=bottom;verticalAlign=top;html=1;shape=mxgraph.basic.arc;startAngle=0.5463867895388711;endAngle=0.9552011782612227;rotation=-180;" parent="1" vertex="1">
          <mxGeometry x="490" y="245" width="80" height="80" as="geometry" />
        </mxCell>
        <mxCell id="C9NLg8bu5e6so61kfnxG-27" value="" style="verticalLabelPosition=bottom;verticalAlign=top;html=1;shape=mxgraph.basic.arc;startAngle=0.5463867895388711;endAngle=0.9552011782612227;rotation=-180;" parent="1" vertex="1">
          <mxGeometry x="490" y="255" width="60" height="60" as="geometry" />
        </mxCell>
        <mxCell id="C9NLg8bu5e6so61kfnxG-28" value="" style="verticalLabelPosition=bottom;verticalAlign=top;html=1;shape=mxgraph.basic.arc;startAngle=0.5463867895388711;endAngle=0.9552011782612227;rotation=-180;" parent="1" vertex="1">
          <mxGeometry x="490" y="265" width="40" height="40" as="geometry" />
        </mxCell>
        <mxCell id="C9NLg8bu5e6so61kfnxG-29" value="Radio signal" style="text;html=1;strokeColor=none;fillColor=none;align=center;verticalAlign=middle;whiteSpace=wrap;rounded=0;" parent="1" vertex="1">
          <mxGeometry x="600" y="275" width="90" height="20" as="geometry" />
        </mxCell>
        <mxCell id="C9NLg8bu5e6so61kfnxG-30" value="«block»&lt;br&gt;&lt;b&gt;Servomotors&lt;/b&gt;" style="html=1;" parent="1" vertex="1">
          <mxGeometry x="120" y="160" width="120" height="150" as="geometry" />
        </mxCell>
        <mxCell id="C9NLg8bu5e6so61kfnxG-31" value="" style="endArrow=classic;startArrow=classic;html=1;strokeColor=#000000;" parent="1" target="C9NLg8bu5e6so61kfnxG-30" edge="1">
          <mxGeometry width="50" height="50" relative="1" as="geometry">
            <mxPoint x="80" y="236" as="sourcePoint" />
            <mxPoint x="300" y="280" as="targetPoint" />
          </mxGeometry>
        </mxCell>
        <mxCell id="C9NLg8bu5e6so61kfnxG-32" value="System movement" style="text;html=1;strokeColor=none;fillColor=none;align=center;verticalAlign=middle;whiteSpace=wrap;rounded=0;" parent="1" vertex="1">
          <mxGeometry x="20" y="225" width="40" height="20" as="geometry" />
        </mxCell>
        <mxCell id="C9NLg8bu5e6so61kfnxG-35" value="" style="endArrow=classic;html=1;strokeColor=#000000;exitX=0;exitY=0.5;exitDx=0;exitDy=0;entryX=0.997;entryY=0.169;entryDx=0;entryDy=0;entryPerimeter=0;" parent="1" source="C9NLg8bu5e6so61kfnxG-12" target="C9NLg8bu5e6so61kfnxG-30" edge="1">
          <mxGeometry width="50" height="50" relative="1" as="geometry">
            <mxPoint x="120" y="290" as="sourcePoint" />
            <mxPoint x="170" y="240" as="targetPoint" />
          </mxGeometry>
        </mxCell>
        <mxCell id="C9NLg8bu5e6so61kfnxG-36" value="Control signals" style="text;html=1;strokeColor=none;fillColor=none;align=center;verticalAlign=middle;whiteSpace=wrap;rounded=0;" parent="1" vertex="1">
          <mxGeometry x="260" y="160" width="40" height="20" as="geometry" />
        </mxCell>
        <mxCell id="C9NLg8bu5e6so61kfnxG-37" value="" style="endArrow=classic;html=1;strokeColor=#000000;exitX=1;exitY=0.5;exitDx=0;exitDy=0;entryX=0.25;entryY=1;entryDx=0;entryDy=0;" parent="1" source="C9NLg8bu5e6so61kfnxG-30" target="C9NLg8bu5e6so61kfnxG-12" edge="1">
          <mxGeometry width="50" height="50" relative="1" as="geometry">
            <mxPoint x="120" y="220" as="sourcePoint" />
            <mxPoint x="170" y="170" as="targetPoint" />
            <Array as="points">
              <mxPoint x="350" y="235" />
            </Array>
          </mxGeometry>
        </mxCell>
        <mxCell id="C9NLg8bu5e6so61kfnxG-38" value="Rotation angles" style="text;html=1;strokeColor=none;fillColor=none;align=center;verticalAlign=middle;whiteSpace=wrap;rounded=0;" parent="1" vertex="1">
          <mxGeometry x="250" y="240" width="70" height="20" as="geometry" />
        </mxCell>
        <mxCell id="C9NLg8bu5e6so61kfnxG-40" value="Coordinates" style="text;html=1;strokeColor=none;fillColor=none;align=center;verticalAlign=middle;whiteSpace=wrap;rounded=0;" parent="1" vertex="1">
          <mxGeometry x="400" y="225" width="40" height="20" as="geometry" />
        </mxCell>
        <mxCell id="C9NLg8bu5e6so61kfnxG-41" value="" style="endArrow=classic;html=1;strokeColor=#000000;exitX=1;exitY=0.5;exitDx=0;exitDy=0;entryX=0.5;entryY=0;entryDx=0;entryDy=0;" parent="1" source="C9NLg8bu5e6so61kfnxG-4" target="C9NLg8bu5e6so61kfnxG-12" edge="1">
          <mxGeometry width="50" height="50" relative="1" as="geometry">
            <mxPoint x="120" y="210" as="sourcePoint" />
            <mxPoint x="170" y="160" as="targetPoint" />
            <Array as="points">
              <mxPoint x="380" y="115" />
            </Array>
          </mxGeometry>
        </mxCell>
        <mxCell id="C9NLg8bu5e6so61kfnxG-44" value="Coordinates" style="text;html=1;strokeColor=none;fillColor=none;align=center;verticalAlign=middle;whiteSpace=wrap;rounded=0;" parent="1" vertex="1">
          <mxGeometry x="850" y="285" width="50" height="20" as="geometry" />
        </mxCell>
        <mxCell id="C9NLg8bu5e6so61kfnxG-47" value="Host Computer" style="shape=umlFrame;whiteSpace=wrap;html=1;width=100;height=30;" parent="1" vertex="1">
          <mxGeometry x="880" y="80" width="240" height="240" as="geometry" />
        </mxCell>
        <mxCell id="C9NLg8bu5e6so61kfnxG-49" value="«block»&lt;br&gt;&lt;b&gt;Rendering Software&lt;/b&gt;" style="html=1;" parent="1" vertex="1">
          <mxGeometry x="920" y="260" width="160" height="50" as="geometry" />
        </mxCell>
        <mxCell id="C9NLg8bu5e6so61kfnxG-50" value="«block»&lt;br&gt;&lt;b&gt;Processor&lt;/b&gt;" style="html=1;" parent="1" vertex="1">
          <mxGeometry x="920" y="125" width="160" height="50" as="geometry" />
        </mxCell>
        <mxCell id="C9NLg8bu5e6so61kfnxG-51" value="" style="endArrow=classic;html=1;strokeColor=#000000;exitX=1;exitY=0.5;exitDx=0;exitDy=0;entryX=0;entryY=0.5;entryDx=0;entryDy=0;" parent="1" source="C9NLg8bu5e6so61kfnxG-17" target="C9NLg8bu5e6so61kfnxG-49" edge="1">
          <mxGeometry width="50" height="50" relative="1" as="geometry">
            <mxPoint x="1060" y="290" as="sourcePoint" />
            <mxPoint x="1110" y="240" as="targetPoint" />
          </mxGeometry>
        </mxCell>
        <mxCell id="C9NLg8bu5e6so61kfnxG-53" value="" style="endArrow=classic;startArrow=classic;html=1;strokeColor=#000000;entryX=0.5;entryY=1;entryDx=0;entryDy=0;exitX=0.5;exitY=0;exitDx=0;exitDy=0;" parent="1" source="C9NLg8bu5e6so61kfnxG-49" target="C9NLg8bu5e6so61kfnxG-50" edge="1">
          <mxGeometry width="50" height="50" relative="1" as="geometry">
            <mxPoint x="890" y="270" as="sourcePoint" />
            <mxPoint x="940" y="220" as="targetPoint" />
          </mxGeometry>
        </mxCell>
        <mxCell id="C9NLg8bu5e6so61kfnxG-54" value="Calculations" style="text;html=1;strokeColor=none;fillColor=none;align=center;verticalAlign=middle;whiteSpace=wrap;rounded=0;" parent="1" vertex="1">
          <mxGeometry x="1020" y="205" width="40" height="20" as="geometry" />
        </mxCell>
        <mxCell id="C9NLg8bu5e6so61kfnxG-55" value="" style="endArrow=classic;html=1;strokeColor=#000000;exitX=1;exitY=0.5;exitDx=0;exitDy=0;entryX=1;entryY=0.766;entryDx=0;entryDy=0;entryPerimeter=0;" parent="1" source="C9NLg8bu5e6so61kfnxG-49" target="C9NLg8bu5e6so61kfnxG-16" edge="1">
          <mxGeometry width="50" height="50" relative="1" as="geometry">
            <mxPoint x="1130" y="270" as="sourcePoint" />
            <mxPoint x="1180" y="220" as="targetPoint" />
          </mxGeometry>
        </mxCell>
        <mxCell id="C9NLg8bu5e6so61kfnxG-56" value="User" style="text;html=1;strokeColor=none;fillColor=none;align=center;verticalAlign=middle;whiteSpace=wrap;rounded=0;" parent="1" vertex="1">
          <mxGeometry x="1180" y="275" width="40" height="20" as="geometry" />
        </mxCell>
      </root>
    </mxGraphModel>
  </diagram>
</mxfile>
